<svg xmlns="http://www.w3.org/2000/svg" viewBox="52 42 88 66">
    <path 
        fill="#4285f4" 
        d="M58 108
           h14
           V74
           L52 59
           v43
           c0 3.32 2.69 6 6 6"/>
    <path 
        fill="#34a853" 
        d="M120 108
           h14
           c3.32 0 6-2.69 6-6
           V59
           l-20 15"/>
    <path 
        fill="#fbbc04" 
        d="M120 48
           v26
           l20-15
           v-8
           c0-7.42-8.47-11.65-14.4-7.2"/>
    <path 
        fill="#ea4335" 
        d="M72 74
           V48
           l24 18 24-18
           v26
           L96 92"/>
    <path 
        fill="#c5221f" 
        d="M52 51
           v8
           l20 15
           V48
           l-5.6-4.2
           c-5.94-4.45-14.4-.22-14.4 7.2"/>
</svg>