<?xml version="1.0" encoding="utf-8"?>
<svg xmlns="http://www.w3.org/2000/svg" width="172" height="247.56" viewBox="0 0 172 247.56">
    <g transform="matrix(2.5834 0 0 2.5834 1.2987 -1.1477)">
    <path 
        d="m65.805 26.539
           v-25.592
           h-65.805
           v25.592
           h14.624
           v43.87
           h-14.624
           v25.591
           h65.805
           v-25.592
           h-14.622
           v-43.87
           h14.622z" 
        fill="#13294b"/>
    <path 
        d="m51.183 22.882
           h10.967
           v-18.279
           h-58.495
           v18.279
           h10.969
           a3.657 3.657 0 0 1 3.655 3.656
           v43.87
           a3.658 3.658 0 0 1-3.655 3.657
           h-10.969v18.279
           h58.496
           v-18.28
           h-10.968
           a3.657 3.657 0 0 1-3.657-3.656
           v-43.87
           a3.656 3.656 0 0 1 3.657-3.656z" 
        clip-rule="evenodd" 
        fill="#ff5f05"/>
    </g>
</svg>